<svg width="5612" height="1054" viewBox="0 0 5612 1054" fill="none" xmlns="http://www.w3.org/2000/svg">
<path d="M554.101 423.364H0.853516V361.606H554.101V423.364ZM443.451 649.295C443.451 566.951 404.509 525.779 326.626 525.779C268.985 525.779 220.78 555.972 182.01 616.357C147.7 669.881 130.545 726.835 130.545 787.221V936.983L46.1426 892.724V505.708H134.662V566.951L180.466 532.47C220.951 501.934 263.667 486.666 308.613 486.666C369.685 486.666 420.292 510.34 460.435 557.688C498.175 602.29 517.046 655.642 517.046 717.743C517.046 795.627 484.108 870.422 418.233 942.13L318.906 879.857C349.785 849.322 376.032 821.188 397.647 795.455C428.183 759.087 443.451 710.367 443.451 649.295ZM1049.19 423.364H706.437V505.708C707.809 505.708 709.181 506.394 710.554 507.767C711.926 509.139 713.127 509.825 714.156 509.825C711.411 509.825 709.868 509.654 709.524 509.311C709.524 507.595 735.085 502.105 786.207 492.842C805.077 489.411 823.776 487.695 842.304 487.695C919.501 487.695 969.079 509.311 991.037 552.541C1005.79 581.361 1013.17 639.517 1013.17 727.007V925.146C1005.96 922.402 978.686 911.251 931.338 891.694C931.338 880.715 929.108 873.682 924.647 870.594C906.463 881.23 891.538 889.293 879.873 894.782C842.818 912.28 799.759 921.029 750.696 921.029C683.106 921.029 630.955 899.757 594.243 857.213C576.402 836.627 567.481 813.639 567.481 788.25C567.481 759.773 581.549 731.467 609.683 703.333C664.235 648.78 731.997 621.504 812.969 621.504C862.032 621.504 901.488 632.826 931.338 655.471V608.123C916.242 588.91 901.488 576.043 887.078 569.524C873.011 563.006 853.626 560.089 828.923 560.775C773.684 561.805 723.077 571.926 677.102 591.14C656.516 599.717 636.444 607.437 616.888 614.299V576.215C621.348 572.441 627.867 566.78 636.444 559.231C637.817 557.516 638.674 556.487 639.018 556.144V423.364H533.515V361.606H1049.19V423.364ZM931.338 749.137C931.338 734.04 913.325 720.488 877.3 708.479C847.45 698.53 822.576 693.555 802.676 693.555C730.282 693.555 672.298 719.63 628.725 771.781C611.227 792.71 602.478 809.865 602.478 823.246C609.683 848.292 637.988 860.815 687.395 860.815C751.211 860.815 809.538 844.861 862.375 812.953C908.35 785.162 931.338 763.89 931.338 749.137ZM1831.97 423.364H1662.14L1663.17 495.415C1709.83 512.57 1743.45 535.043 1764.04 562.834C1785.31 591.654 1795.95 630.596 1795.95 679.659C1795.95 750.338 1767.64 811.066 1711.03 861.845C1700.39 871.451 1684.1 883.975 1662.14 899.414C1635.03 918.628 1617.88 928.234 1610.67 928.234C1603.47 928.234 1570.36 898.042 1511.35 837.656C1547.72 835.598 1585.63 823.932 1625.08 802.66C1662.48 782.76 1694.22 758.4 1720.29 729.58C1748.43 698.701 1762.5 665.935 1762.5 631.282C1762.5 596.972 1743.45 573.127 1705.37 559.746C1686.84 553.227 1668.49 550.311 1650.3 550.997C1539.14 555.457 1471.03 620.132 1445.99 745.02L1340.48 701.789C1340.48 672.969 1351.63 640.717 1373.94 605.035C1382.17 591.997 1386.46 584.621 1386.8 582.905C1386.8 566.78 1363.64 558.717 1317.32 558.717C1257.97 558.717 1211.82 584.792 1178.88 636.943C1164.47 659.931 1157.27 682.919 1157.27 705.906C1157.27 753.94 1179.4 799.401 1223.66 842.288L1321.44 936.983C1261.74 916.397 1206.33 886.548 1155.21 847.435C1086.93 795.284 1052.79 739.358 1052.79 679.659C1052.79 604.177 1090.88 547.909 1167.05 510.854C1200.33 494.729 1234.64 486.666 1269.98 486.666C1315.27 486.666 1360.55 500.218 1405.84 527.323C1423 537.616 1432.95 543.106 1435.69 543.792C1461.77 532.47 1490.42 520.29 1521.64 507.252C1538.11 500.39 1554.75 495.758 1571.56 493.356L1572.59 423.364H1037.36V361.606H1831.97V423.364ZM2328.61 423.364H1985.85V505.708C1987.22 505.708 1988.6 506.394 1989.97 507.767C1991.34 509.139 1992.54 509.825 1993.57 509.825C1990.83 509.825 1989.28 509.654 1988.94 509.311C1988.94 507.595 2014.5 502.105 2065.62 492.842C2084.49 489.411 2103.19 487.695 2121.72 487.695C2198.92 487.695 2248.49 509.311 2270.45 552.541C2285.21 581.361 2292.58 639.517 2292.58 727.007V925.146C2285.38 922.402 2258.1 911.251 2210.75 891.694C2210.75 880.715 2208.52 873.682 2204.06 870.594C2185.88 881.23 2170.95 889.293 2159.29 894.782C2122.23 912.28 2079.18 921.029 2030.11 921.029C1962.52 921.029 1910.37 899.757 1873.66 857.213C1855.82 836.627 1846.9 813.639 1846.9 788.25C1846.9 759.773 1860.96 731.467 1889.1 703.333C1943.65 648.78 2011.41 621.504 2092.38 621.504C2141.45 621.504 2180.9 632.826 2210.75 655.471V608.123C2195.66 588.91 2180.9 576.043 2166.49 569.524C2152.43 563.006 2133.04 560.089 2108.34 560.775C2053.1 561.805 2002.49 571.926 1956.52 591.14C1935.93 599.717 1915.86 607.437 1896.3 614.299V576.215C1900.76 572.441 1907.28 566.78 1915.86 559.231C1917.23 557.516 1918.09 556.487 1918.43 556.144V423.364H1812.93V361.606H2328.61V423.364ZM2210.75 749.137C2210.75 734.04 2192.74 720.488 2156.72 708.479C2126.87 698.53 2101.99 693.555 2082.09 693.555C2009.7 693.555 1951.71 719.63 1908.14 771.781C1890.64 792.71 1881.89 809.865 1881.89 823.246C1889.1 848.292 1917.4 860.815 1966.81 860.815C2030.63 860.815 2088.95 844.861 2141.79 812.953C2187.77 785.162 2210.75 763.89 2210.75 749.137ZM2849.95 423.364H2793.85V618.416C2773.61 606.408 2744.44 596.115 2706.36 587.537C2670.68 579.303 2639.8 575.186 2613.72 575.186C2550.94 575.186 2498.27 586.336 2455.73 608.638C2431.71 621.332 2419.7 637.973 2419.7 658.559C2419.7 686.007 2434.11 699.73 2462.93 699.73C2480.43 699.73 2503.25 694.584 2531.38 684.291C2549.56 677.772 2572.89 669.538 2601.37 659.588C2613.38 655.471 2634.65 653.412 2665.19 653.412C2724.54 653.412 2768.8 671.768 2797.97 708.479C2812.03 725.978 2819.07 746.563 2819.07 770.237C2819.07 824.79 2784.76 867.677 2716.14 898.899C2687.66 911.937 2660.56 919.314 2634.82 921.029C2659.53 945.732 2683.03 958.084 2705.33 958.084C2712.54 958.084 2720.26 957.055 2728.49 954.996L2780.47 1039.91C2769.83 1049.18 2748.05 1053.81 2715.11 1053.81C2688.35 1053.81 2665.7 1044.72 2647.18 1026.53C2637.23 1016.58 2623.16 995.825 2604.97 964.26C2589.54 937.155 2576.67 923.431 2566.38 923.088C2502.9 921.372 2454.01 909.879 2419.7 888.606C2398.09 875.226 2387.28 856.87 2387.28 833.539C2387.28 804.719 2404.43 790.309 2438.74 790.309C2451.44 790.309 2477.86 800.258 2518 820.158C2558.48 839.715 2591.77 849.493 2617.84 849.493C2669.99 849.493 2718.88 837.142 2764.52 812.438C2786.82 800.43 2797.97 785.677 2797.97 768.179C2797.97 742.103 2777.38 729.065 2736.21 729.065C2723.52 729.065 2682.51 738.329 2613.21 756.856C2572.38 767.836 2547.33 773.325 2538.07 773.325C2483.52 773.325 2438.57 747.593 2403.23 696.128C2386.08 671.425 2377.5 644.835 2377.5 616.357C2377.16 558.374 2416.78 519.26 2496.38 499.018C2528.98 490.783 2559.69 486.666 2588.51 486.666C2621.44 486.666 2668.1 494.729 2728.49 510.854V423.364H2318.83V361.606H2849.95V423.364ZM3324.45 423.364H2986.84V556.144C3007.09 544.478 3040.2 529.21 3086.17 510.34C3105.04 505.193 3127.86 502.62 3154.62 502.62C3191.33 502.62 3224.1 512.742 3252.92 532.984C3285.17 555.286 3301.29 584.106 3301.29 619.445C3301.29 667.136 3274.02 701.789 3219.46 723.404C3196.82 732.325 3177.26 736.785 3160.79 736.785L3280.19 881.916L3214.83 929.264L3031.1 711.053L3065.07 640.546C3083.25 645.692 3102.3 648.266 3122.2 648.266C3151.36 648.266 3175.21 641.404 3193.73 627.68C3214.66 612.583 3225.13 590.968 3225.13 562.834C3225.13 535.386 3205.57 521.662 3166.46 521.662C3139.01 521.662 3109.84 534.871 3078.97 561.29C3057.01 580.16 3036.94 602.977 3018.75 629.738C2996.79 661.99 2985.81 689.609 2985.81 712.597V928.234L2897.29 888.606V423.364H2831.93V361.606H2894.21C2894.21 263.137 2876.37 181.308 2840.68 116.119C2833.82 103.424 2820.61 84.3825 2801.06 58.9932C2782.53 34.6331 2769.66 15.248 2762.46 0.837891H2866.93C2887.17 19.7083 2908.1 50.7588 2929.72 93.9893C2966.43 167.412 2984.79 256.618 2984.79 361.606H3324.45V423.364ZM3821.09 423.364H3478.33V505.708C3479.71 505.708 3481.08 506.394 3482.45 507.767C3483.82 509.139 3485.02 509.825 3486.05 509.825C3483.31 509.825 3481.76 509.654 3481.42 509.311C3481.42 507.595 3506.98 502.105 3558.1 492.842C3576.97 489.411 3595.67 487.695 3614.2 487.695C3691.4 487.695 3740.98 509.311 3762.93 552.541C3777.69 581.361 3785.06 639.517 3785.06 727.007V925.146C3777.86 922.402 3750.58 911.251 3703.23 891.694C3703.23 880.715 3701 873.682 3696.54 870.594C3678.36 881.23 3663.43 889.293 3651.77 894.782C3614.71 912.28 3571.66 921.029 3522.59 921.029C3455 921.029 3402.85 899.757 3366.14 857.213C3348.3 836.627 3339.38 813.639 3339.38 788.25C3339.38 759.773 3353.44 731.467 3381.58 703.333C3436.13 648.78 3503.89 621.504 3584.87 621.504C3633.93 621.504 3673.38 632.826 3703.23 655.471V608.123C3688.14 588.91 3673.38 576.043 3658.97 569.524C3644.91 563.006 3625.52 560.089 3600.82 560.775C3545.58 561.805 3494.97 571.926 3449 591.14C3428.41 599.717 3408.34 607.437 3388.78 614.299V576.215C3393.24 572.441 3399.76 566.78 3408.34 559.231C3409.71 557.516 3410.57 556.487 3410.91 556.144V423.364H3305.41V361.606H3821.09V423.364ZM3703.23 749.137C3703.23 734.04 3685.22 720.488 3649.2 708.479C3619.35 698.53 3594.47 693.555 3574.57 693.555C3502.18 693.555 3444.19 719.63 3400.62 771.781C3383.12 792.71 3374.37 809.865 3374.37 823.246C3381.58 848.292 3409.88 860.815 3459.29 860.815C3523.11 860.815 3581.43 844.861 3634.27 812.953C3680.25 785.162 3703.23 763.89 3703.23 749.137ZM4334.71 423.364H3814.4V361.606H4334.71V423.364ZM4291.99 608.123C4291.99 628.366 4279.81 651.182 4255.45 676.571C4234.87 698.187 4213.25 714.312 4190.61 724.948L4113.41 637.458C4136.74 635.399 4158.87 626.822 4179.8 611.726C4203.82 594.571 4215.82 575.014 4215.82 553.056C4215.82 541.39 4208.28 531.44 4193.18 523.206C4180.14 515.658 4167.28 511.884 4154.58 511.884C4128.16 511.884 4099.86 524.578 4069.66 549.968C4008.25 601.433 3977.54 658.387 3977.54 720.831V939.042L3878.73 887.577V506.737H3978.57V545.851C3993.32 531.097 4023.86 515.658 4070.18 499.532C4092.82 491.641 4116.15 487.695 4140.17 487.695C4189.92 487.695 4232.12 506.737 4266.77 544.821C4283.59 563.349 4291.99 584.449 4291.99 608.123ZM4828.77 423.364H4486.01V505.708C4487.39 505.708 4488.76 506.394 4490.13 507.767C4491.5 509.139 4492.71 509.825 4493.73 509.825C4490.99 509.825 4489.45 509.654 4489.1 509.311C4489.1 507.595 4514.66 502.105 4565.79 492.842C4584.66 489.411 4603.35 487.695 4621.88 487.695C4699.08 487.695 4748.66 509.311 4770.62 552.541C4785.37 581.361 4792.75 639.517 4792.75 727.007V925.146C4785.54 922.402 4758.26 911.251 4710.92 891.694C4710.92 880.715 4708.69 873.682 4704.23 870.594C4686.04 881.23 4671.12 889.293 4659.45 894.782C4622.4 912.28 4579.34 921.029 4530.27 921.029C4462.68 921.029 4410.53 899.757 4373.82 857.213C4355.98 836.627 4347.06 813.639 4347.06 788.25C4347.06 759.773 4361.13 731.467 4389.26 703.333C4443.81 648.78 4511.58 621.504 4592.55 621.504C4641.61 621.504 4681.07 632.826 4710.92 655.471V608.123C4695.82 588.91 4681.07 576.043 4666.66 569.524C4652.59 563.006 4633.2 560.089 4608.5 560.775C4553.26 561.805 4502.65 571.926 4456.68 591.14C4436.09 599.717 4416.02 607.437 4396.47 614.299V576.215C4400.93 572.441 4407.44 566.78 4416.02 559.231C4417.39 557.516 4418.25 556.487 4418.6 556.144V423.364H4313.09V361.606H4828.77V423.364ZM4710.92 749.137C4710.92 734.04 4692.9 720.488 4656.88 708.479C4627.03 698.53 4602.15 693.555 4582.25 693.555C4509.86 693.555 4451.88 719.63 4408.3 771.781C4390.8 792.71 4382.06 809.865 4382.06 823.246C4389.26 848.292 4417.57 860.815 4466.97 860.815C4530.79 860.815 4589.12 844.861 4641.95 812.953C4687.93 785.162 4710.92 763.89 4710.92 749.137ZM5611.55 423.364H5441.72L5442.75 495.415C5489.41 512.57 5523.03 535.043 5543.62 562.834C5564.89 591.654 5575.53 630.596 5575.53 679.659C5575.53 750.338 5547.22 811.066 5490.61 861.845C5479.97 871.451 5463.68 883.975 5441.72 899.414C5414.61 918.628 5397.46 928.234 5390.25 928.234C5383.05 928.234 5349.94 898.042 5290.92 837.656C5327.29 835.598 5365.21 823.932 5404.66 802.66C5442.06 782.76 5473.8 758.4 5499.87 729.58C5528.01 698.701 5542.07 665.935 5542.07 631.282C5542.07 596.972 5523.03 573.127 5484.95 559.746C5466.42 553.227 5448.06 550.311 5429.88 550.997C5318.72 555.457 5250.61 620.132 5225.56 745.02L5120.06 701.789C5120.06 672.969 5131.21 640.717 5153.51 605.035C5161.75 591.997 5166.04 584.621 5166.38 582.905C5166.38 566.78 5143.22 558.717 5096.9 558.717C5037.55 558.717 4991.4 584.792 4958.46 636.943C4944.05 659.931 4936.85 682.919 4936.85 705.906C4936.85 753.94 4958.98 799.401 5003.24 842.288L5101.02 936.983C5041.32 916.397 4985.91 886.548 4934.79 847.435C4866.51 795.284 4832.37 739.358 4832.37 679.659C4832.37 604.177 4870.46 547.909 4946.62 510.854C4979.91 494.729 5014.22 486.666 5049.55 486.666C5094.84 486.666 5140.13 500.218 5185.42 527.323C5202.58 537.616 5212.53 543.106 5215.27 543.792C5241.35 532.47 5270 520.29 5301.22 507.252C5317.69 500.39 5334.33 495.758 5351.14 493.356L5352.17 423.364H4816.93V361.606H5611.55V423.364Z" fill="#EFFF09"/>
</svg>
