<svg width="1022" height="212" viewBox="0 0 1022 212" fill="none" xmlns="http://www.w3.org/2000/svg">
<path d="M127.636 152.754V76.986L89.26 76.494C96.64 88.63 98.69 98.798 95.41 106.998C92.294 115.034 86.8 121.02 78.928 124.956C71.056 128.728 65.152 128.974 61.216 125.694C41.372 108.802 31.04 99.946 30.22 99.126C23.004 92.238 20.134 83.546 21.61 73.05C23.086 62.554 28.006 55.994 36.37 53.37C37.026 53.206 67.448 53.206 127.636 53.37V24.342H0.7V0.725996H177.082V24.342H158.14V166.53L127.636 152.754ZM70.81 76.248C54.738 76.084 45.718 79.61 43.75 86.826C42.438 91.746 44.406 96.42 49.654 100.848C55.394 105.604 60.888 106.424 66.136 103.308C72.368 99.7 75.402 90.68 75.238 76.248H70.81ZM171.514 24.342V0.725996H346.174V24.342H327.724V166.776L297.22 153V110.688H246.298C246.298 119.052 245.15 126.104 242.854 131.844C240.722 137.584 238.016 141.684 234.736 144.144C231.62 146.44 228.176 147.998 224.404 148.818C220.632 149.474 217.352 149.556 214.564 149.064C211.776 148.572 209.562 147.752 207.922 146.604C197.262 139.388 188.57 131.762 181.846 123.726C180.206 121.758 179.14 119.216 178.648 116.1C178.156 112.984 178.402 109.622 179.386 106.014C180.37 102.406 182.092 99.044 184.552 95.928C187.176 92.648 191.194 90.106 196.606 88.302C202.018 86.334 208.414 85.514 215.794 85.842V24.342H171.514ZM246.298 86.58L297.22 86.334V24.342H246.298V86.58ZM215.548 109.704C210.464 109.048 206.364 109.622 203.248 111.426C200.132 113.23 198.492 115.362 198.328 117.822C198.328 120.282 198.984 122.578 200.296 124.71C201.772 125.858 203.658 126.678 205.954 127.17C208.25 127.498 210.382 126.104 212.35 122.988C214.482 119.872 215.548 115.444 215.548 109.704ZM551.467 58.044V24.342H416.659C423.711 35.166 427.893 46.072 429.205 57.06C430.681 67.884 428.959 77.806 424.039 86.826C427.975 88.466 432.157 89.532 436.585 90.024C441.013 90.516 445.933 90.106 451.345 88.794C456.921 87.318 461.923 84.694 466.351 80.922C467.007 74.198 471.271 66.982 479.143 59.274C487.179 51.566 495.789 45.744 504.973 41.808C514.321 37.872 521.045 37.298 525.145 40.086C533.345 46.154 542.119 52.14 551.467 58.044ZM551.467 86.58V71.082C539.003 64.85 527.687 63.456 517.519 66.9C507.351 70.344 499.397 76.248 493.657 84.612C488.081 92.976 487.425 99.372 491.689 103.8C493.493 105.932 496.281 107.654 500.053 108.966C503.825 110.278 508.417 111.016 513.829 111.18C519.241 111.18 525.309 109.13 532.033 105.03C538.921 100.93 545.399 94.78 551.467 86.58ZM671.023 24.342H582.217V51.894C591.729 43.53 603.373 39.594 617.149 40.086C621.741 40.25 629.039 45.58 639.043 56.076C649.211 66.572 656.919 75.674 662.167 83.382C667.743 91.91 665.939 101.996 656.755 113.64C647.735 125.12 636.255 133.238 622.315 137.994L599.191 116.838C616.903 110.606 628.465 103.554 633.877 95.682C637.649 90.27 639.617 85.186 639.781 80.43C640.109 75.674 638.879 72.148 636.091 69.852C633.467 67.392 629.859 65.834 625.267 65.178C620.675 64.522 615.427 65.588 609.523 68.376C595.583 74.772 586.481 84.53 582.217 97.65V166.776L551.467 153V118.56C541.627 130.04 531.623 135.78 521.455 135.78C505.547 135.78 490.459 124.956 476.191 103.308C466.023 108.392 457.249 110.934 449.869 110.934C443.801 110.934 433.223 105.768 418.135 95.436C411.247 103.144 402.309 108.72 391.321 112.164C394.273 117.74 400.915 125.038 411.247 134.058C421.743 143.078 431.911 150.95 441.751 157.674L434.863 166.776C412.067 152.508 396.077 141.52 386.893 133.812C367.213 117.412 354.093 100.028 347.533 81.66C351.305 71 355.077 63.456 358.849 59.028C360.325 57.224 363.031 57.306 366.967 59.274C370.903 61.242 374.429 63.702 377.545 66.654C378.365 67.638 379.021 69.114 379.513 71.082C380.169 72.886 380.743 75.428 381.235 78.708C381.891 81.824 382.547 84.53 383.203 86.826C389.763 84.694 394.847 81.25 398.455 76.494C402.227 71.738 404.359 66.408 404.851 60.504C405.507 54.436 405.343 48.45 404.359 42.546C403.539 36.478 402.063 30.41 399.931 24.342H340.891V0.725996H671.023V24.342ZM667.129 24.342V0.725996H735.271V24.342H716.329V166.776L685.825 153V24.342H667.129ZM732.21 24.342V0.725996H844.14V24.342H811.668C819.376 35.986 823.722 47.794 824.706 59.766C825.854 71.574 823.066 82.562 816.342 92.73C809.782 102.898 799.614 110.524 785.838 115.608C797.81 132.992 814.784 147.096 836.76 157.92L829.872 166.776C822.328 162.512 815.768 158.576 810.192 154.968C804.78 151.524 798.22 146.932 790.512 141.192C782.804 135.452 776.162 129.876 770.586 124.464C765.174 118.888 759.844 112.328 754.596 104.784C749.348 97.24 745.33 89.532 742.542 81.66C746.15 71.328 749.922 63.866 753.858 59.274C755.334 57.47 758.04 57.552 761.976 59.52C765.912 61.488 769.438 63.948 772.554 66.9C773.702 68.048 774.686 71 775.506 75.756C776.49 80.348 777.474 83.792 778.458 86.088C785.018 83.956 790.102 80.594 793.71 76.002C797.318 71.246 799.45 65.916 800.106 60.012C800.762 54.108 800.598 48.204 799.614 42.3C798.794 36.396 797.236 30.41 794.94 24.342H732.21ZM839.126 24.342V0.725996H1013.79V24.342H995.336V166.776L964.832 153V110.688H913.91C913.91 119.052 912.762 126.104 910.466 131.844C908.334 137.584 905.628 141.684 902.348 144.144C899.232 146.44 895.788 147.998 892.016 148.818C888.244 149.474 884.964 149.556 882.176 149.064C879.388 148.572 877.174 147.752 875.534 146.604C864.874 139.388 856.182 131.762 849.458 123.726C847.818 121.758 846.752 119.216 846.26 116.1C845.768 112.984 846.014 109.622 846.998 106.014C847.982 102.406 849.704 99.044 852.164 95.928C854.788 92.648 858.806 90.106 864.218 88.302C869.63 86.334 876.026 85.514 883.406 85.842V24.342H839.126ZM913.91 86.58L964.832 86.334V24.342H913.91V86.58ZM883.16 109.704C878.076 109.048 873.976 109.622 870.86 111.426C867.744 113.23 866.104 115.362 865.94 117.822C865.94 120.282 866.596 122.578 867.908 124.71C869.384 125.858 871.27 126.678 873.566 127.17C875.862 127.498 877.994 126.104 879.962 122.988C882.094 119.872 883.16 115.444 883.16 109.704ZM944.296 177.108C944.788 175.468 947.412 173.09 952.168 169.974C956.76 167.022 959.958 165.3 961.762 164.808C963.074 164.48 973.078 170.794 991.774 183.75C1010.47 196.87 1020.31 204.086 1021.29 205.398C1021.13 205.89 1019.74 206.956 1017.11 208.596C1014.65 210.236 1013.01 211.22 1012.19 211.548C1011.7 211.22 1005.8 208.268 994.48 202.692C983.164 197.116 972.176 191.622 961.516 186.21C950.856 180.962 945.116 177.928 944.296 177.108Z" fill="#F3FF17"/>
</svg>
